<?xml version="1.0" standalone="no"?>
<!DOCTYPE svg PUBLIC "-//W3C//DTD SVG 20010904//EN"
 "http://www.w3.org/TR/2001/REC-SVG-20010904/DTD/svg10.dtd">
<svg version="1.0" xmlns="http://www.w3.org/2000/svg"
 width="360.000000pt" height="360.000000pt" viewBox="0 0 360.000000 360.000000"
 preserveAspectRatio="xMidYMid meet">
<metadata>
Created by potrace 1.11, written by Peter Selinger 2001-2013
</metadata>
<g transform="translate(0.000000,360.000000) scale(0.100000,-0.100000)"
fill="#000000" stroke="none">
<path d="M1458 3079 c-33 -15 -46 -26 -43 -38 2 -10 -1 -24 -6 -32 -7 -11 -9
-10 -9 6 0 16 -2 17 -9 6 -11 -17 -41 -24 -41 -10 0 16 -13 10 -129 -51 -168
-89 -316 -189 -302 -203 19 -19 12 -27 -13 -17 -21 8 -34 2 -91 -41 -84 -64
-108 -100 -102 -157 l5 -43 -112 -79 c-173 -123 -325 -247 -346 -283 -14 -22
-20 -47 -19 -82 2 -31 -4 -61 -14 -80 -9 -16 -17 -50 -17 -73 0 -37 6 -50 34
-78 52 -52 123 -47 188 13 l26 25 7 -31 c8 -35 12 -37 35 -16 15 14 28 13 126
-4 144 -26 196 -39 214 -55 17 -15 208 -103 230 -106 31 -5 40 1 40 25 0 13
-8 29 -17 34 -15 9 -14 10 11 11 24 0 27 -3 23 -22 -4 -13 -9 -42 -13 -65 -6
-41 -5 -43 18 -43 32 0 43 13 57 68 11 39 14 42 45 42 31 0 52 -19 48 -42 -2
-11 105 -21 140 -13 40 8 80 8 133 0 97 -15 479 -80 675 -115 253 -46 752
-133 863 -151 43 -6 80 -9 84 -6 10 11 -18 65 -43 82 l-24 16 39 37 c44 42 56
75 47 126 -8 43 -57 86 -97 86 -49 0 -43 7 81 92 112 76 247 186 270 219 31
42 36 89 14 135 -14 29 -15 39 -5 42 28 9 84 68 112 116 26 46 29 60 29 138 0
85 -1 88 -27 105 -16 9 -30 18 -32 20 -2 1 8 16 22 33 73 87 21 207 -89 204
-34 -1 -55 -10 -105 -47 l-62 -47 -18 39 c-35 78 -104 92 -211 42 -35 -16 -84
-37 -110 -46 -26 -9 -64 -28 -85 -42 -21 -14 -67 -36 -103 -48 -36 -12 -104
-41 -152 -63 -125 -58 -128 -59 -128 -27 0 64 -55 115 -125 115 -23 0 -110
-30 -233 -81 -109 -45 -203 -84 -211 -87 -32 -12 7 24 147 137 188 151 187
150 187 218 0 49 -3 58 -33 84 -25 22 -42 29 -75 29 -41 0 -71 -14 -154 -76
l-23 -16 0 53 c0 62 -10 82 -33 73 -10 -3 -17 -1 -17 5 0 6 -3 10 -7 10 -24
-4 -33 4 -33 26 0 22 -4 25 -32 24 -18 0 -27 -3 -20 -6 6 -2 12 -14 12 -25 0
-16 -5 -19 -22 -15 -12 4 -28 1 -36 -5 -10 -9 -15 -9 -21 1 -5 7 -12 12 -17
11 -4 -1 -11 7 -15 17 -7 17 -8 17 -8 1 -1 -10 -8 -18 -17 -18 -10 0 -14 6
-11 15 5 12 1 12 -21 3 -15 -6 -44 -12 -64 -13 -29 -2 -38 1 -39 14 0 10 -2
11 -6 4 -7 -18 -23 -16 -23 2 0 8 -5 15 -11 15 -6 0 -9 -7 -5 -15 3 -9 0 -15
-10 -15 -10 0 -14 6 -10 15 7 19 1 19 -56 -6z m-2 -76 c-3 -3 -13 -3 -22 1
-15 6 -15 8 2 27 l19 21 3 -22 c2 -12 1 -24 -2 -27z m32 12 c0 -13 -4 -22 -9
-19 -5 3 -9 14 -9 25 0 10 4 19 9 19 5 0 9 -11 9 -25z m42 10 c10 -12 10 -19
2 -27 -9 -9 -12 -8 -12 3 0 12 -2 12 -10 -1 -8 -12 -10 -9 -10 13 0 30 11 35
30 12z m40 -2 c0 -5 -5 -15 -10 -23 -8 -12 -10 -11 -10 8 0 12 5 22 10 22 6 0
10 -3 10 -7z m160 -3 c10 -4 26 -7 52 -8 19 -2 26 -6 22 -16 -3 -8 -1 -17 5
-21 7 -3 11 2 11 14 0 12 5 21 10 21 11 0 14 -43 3 -53 -3 -4 -11 -3 -17 2
-19 14 -52 19 -70 9 -11 -6 -16 -5 -16 5 0 10 -14 13 -55 12 -58 -2 -69 3 -59
28 4 12 18 15 57 12 29 -1 54 -4 57 -5z m-650 -197 c0 -5 23 -8 52 -7 81 0
122 -9 126 -29 2 -9 -1 -17 -7 -17 -6 0 -11 4 -11 9 0 6 -16 7 -36 4 -29 -5
-40 -2 -52 13 -11 14 -13 15 -9 3 5 -14 -1 -16 -36 -12 -47 6 -63 16 -53 32 8
12 26 15 26 4z m214 -29 c9 -22 8 -24 -9 -24 -8 0 -15 9 -15 20 0 24 15 27 24
4z m109 -9 c3 -16 0 -24 -7 -22 -14 4 -21 47 -8 47 5 0 12 -11 15 -25z m74
-10 c-1 -38 -12 -47 -20 -16 -4 16 8 51 18 51 1 0 3 -16 2 -35z m-116 16 c6
10 9 8 9 -9 0 -28 -24 -25 -27 4 -2 11 0 14 3 5 5 -11 8 -11 15 0z m-391 -46
c0 -8 -4 -15 -9 -15 -13 0 -22 16 -14 24 11 11 23 6 23 -9z m250 -4 c0 -5 -3
-17 -6 -26 -5 -12 -9 -14 -14 -4 -5 7 -6 18 -3 26 6 15 23 18 23 4z m107 -32
c-1 -18 -17 -28 -17 -10 0 9 -48 6 -57 -3 -9 -8 -34 15 -27 25 3 5 27 8 54 8
41 -1 48 -5 47 -20z m73 -9 c0 -11 -4 -20 -10 -20 -5 0 -10 9 -10 20 0 11 5
20 10 20 6 0 10 -9 10 -20z m36 9 c3 -6 2 -15 -4 -21 -6 -6 -11 -2 -15 11 -5
22 7 29 19 10z m37 -19 c-3 -11 -9 -20 -14 -20 -4 0 -7 9 -6 20 1 11 7 20 13
20 7 0 10 -8 7 -20z m42 10 c3 -5 1 -10 -5 -10 -6 0 -8 -4 -5 -10 3 -5 2 -10
-4 -10 -5 0 -13 5 -16 10 -7 12 2 30 15 30 5 0 12 -4 15 -10z m32 -10 c-1 -11
-5 -20 -9 -20 -4 0 -8 9 -8 20 0 11 4 20 9 20 6 0 9 -9 8 -20z m90 -20 c10 0
13 6 9 16 -5 13 -1 15 21 9 42 -10 51 -24 29 -41 -11 -8 -22 -11 -25 -6 -3 4
-12 7 -18 8 -7 1 -22 2 -33 3 -15 1 -19 7 -16 24 7 33 8 34 13 10 2 -13 11
-23 20 -23z m141 -5 c0 -14 -4 -28 -9 -31 -5 -3 -9 9 -9 25 0 17 4 31 9 31 5
0 9 -11 9 -25z m-858 5 c0 -5 -4 -10 -9 -10 -6 0 -13 5 -16 10 -3 6 1 10 9 10
9 0 16 -4 16 -10z m824 -5 c4 -10 -1 -15 -14 -15 -13 0 -18 5 -14 15 4 8 10
15 14 15 4 0 10 -7 14 -15z m-531 -20 c3 -16 0 -24 -7 -22 -14 4 -21 47 -8 47
5 0 12 -11 15 -25z m37 -2 c0 -20 -3 -24 -11 -16 -7 7 -9 19 -6 27 10 24 17
19 17 -11z m35 -3 c3 -5 3 -15 -1 -21 -6 -11 -23 6 -24 24 0 10 18 9 25 -3z
m35 -11 c0 -11 -4 -17 -10 -14 -5 3 -10 13 -10 21 0 8 5 14 10 14 6 0 10 -9
10 -21z m35 1 c3 -5 1 -10 -4 -10 -6 0 -11 5 -11 10 0 6 2 10 4 10 3 0 8 -4
11 -10z m39 -6 c9 -22 -3 -32 -14 -14 -12 19 -12 30 -1 30 5 0 12 -7 15 -16z
m33 -3 c0 -11 -5 -17 -9 -15 -11 7 -10 34 1 34 6 0 9 -9 8 -19z m75 -6 c3 -14
2 -25 -2 -25 -4 0 -10 11 -12 25 -3 14 -2 25 2 25 4 0 10 -11 12 -25z m-32 -5
c0 -4 -6 -12 -12 -18 -10 -8 -13 -4 -14 13 -1 16 2 22 12 18 8 -3 14 -9 14
-13z m78 -2 c-6 -18 -28 -21 -28 -4 0 9 7 16 16 16 9 0 14 -5 12 -12z m-628
-14 c0 -2 -7 -4 -15 -4 -8 0 -15 4 -15 10 0 5 7 7 15 4 8 -4 15 -8 15 -10z
m815 5 c3 -4 14 -5 26 -2 17 5 20 2 17 -13 -4 -21 -37 -21 -50 -1 -6 9 -8 9
-8 0 0 -15 -59 -10 -70 6 -6 11 -9 11 -13 0 -4 -10 -6 -10 -6 2 -1 14 9 17 49
16 28 0 53 -4 55 -8z m-785 -9 c0 -5 -2 -10 -4 -10 -3 0 -8 5 -11 10 -3 6 -1
10 4 10 6 0 11 -4 11 -10z m630 0 c0 -5 -4 -10 -10 -10 -5 0 -10 5 -10 10 0 6
5 10 10 10 6 0 10 -4 10 -10z m230 -15 c0 -14 -4 -25 -10 -25 -5 0 -10 11 -10
25 0 14 5 25 10 25 6 0 10 -11 10 -25z m-590 -7 c0 -10 3 -9 9 1 6 9 11 10 15
3 4 -6 13 -9 21 -5 11 4 13 1 9 -11 -7 -18 -16 -19 -63 -10 -34 7 -43 34 -11
34 11 0 20 -6 20 -12z m127 -25 c-3 -10 -5 -4 -5 12 0 17 2 24 5 18 2 -7 2
-21 0 -30z m-27 2 c0 -16 -6 -25 -15 -25 -15 0 -21 31 -8 43 13 14 23 6 23
-18z m77 -1 c2 -5 -6 -10 -17 -11 -20 -2 -26 8 -13 21 9 8 26 3 30 -10z m30
-4 c-1 -11 -5 -20 -9 -20 -4 0 -8 9 -8 20 0 11 4 20 9 20 6 0 9 -9 8 -20z m80
4 c8 -21 -13 -42 -28 -27 -13 13 -5 43 11 43 6 0 13 -7 17 -16z m78 -4 c8 -13
-14 -42 -26 -34 -5 3 -9 14 -9 25 0 20 24 26 35 9z m75 -20 c0 -21 -24 -28
-35 -10 -8 14 3 30 21 30 8 0 14 -9 14 -20z m-745 0 c3 -5 2 -10 -4 -10 -5 0
-13 5 -16 10 -3 6 -2 10 4 10 5 0 13 -4 16 -10z m862 -5 c5 -16 -14 -38 -26
-31 -18 12 -13 48 6 44 9 -2 18 -7 20 -13z m73 -11 c0 -8 5 -14 10 -14 6 0 10
7 10 16 0 8 5 12 10 9 6 -3 10 -15 10 -26 0 -15 -6 -18 -32 -15 -34 3 -44 16
-34 42 7 18 26 9 26 -12z m-120 6 c0 -5 -7 -7 -15 -4 -8 4 -15 8 -15 10 0 2 7
4 15 4 8 0 15 -4 15 -10z m198 -23 c3 -20 0 -25 -11 -21 -17 6 -20 57 -3 51 6
-2 12 -16 14 -30z m-660 7 c47 1 52 -1 50 -19 -2 -11 -9 -19 -15 -18 -7 2 -37
4 -67 5 -44 2 -56 6 -56 18 0 22 11 32 24 22 6 -4 35 -8 64 -8z m702 8 c0 -4
15 -8 33 -8 84 -2 87 -3 87 -28 0 -28 -18 -44 -26 -23 -5 15 -5 15 -76 18 -43
1 -48 4 -48 25 0 15 6 24 15 24 8 0 15 -3 15 -8z m-620 -29 c-1 -24 -2 -26
-11 -10 -5 9 -7 22 -4 27 10 17 15 11 15 -17z m78 -19 c0 -29 -22 -31 -41 -3
-11 15 -16 17 -20 7 -4 -9 -6 -8 -6 4 -1 12 8 16 33 16 29 0 34 -3 34 -24z
m71 -17 c1 -5 -3 -5 -9 -2 -5 3 -10 16 -9 28 0 21 1 21 9 2 5 -11 9 -24 9 -28z
m33 1 c-15 -15 -26 -4 -18 18 5 13 9 15 18 6 9 -9 9 -15 0 -24z m41 12 c-3
-11 -8 -20 -12 -20 -4 0 -7 9 -8 20 -1 11 4 20 12 20 8 0 11 -7 8 -20z m34
-10 c-1 -11 -5 -20 -9 -20 -4 0 -8 9 -8 20 0 11 4 20 9 20 6 0 9 -9 8 -20z
m39 -5 c1 -8 -2 -15 -7 -15 -5 0 -9 10 -9 22 0 23 12 17 16 -7z m84 -6 c0 -10
-7 -19 -15 -19 -15 0 -21 31 -9 43 11 10 24 -3 24 -24z m30 -14 c0 -14 -4 -25
-10 -25 -5 0 -9 11 -8 25 1 14 6 25 10 25 4 0 8 -11 8 -25z m-557 -10 c-3 -8
-9 -15 -14 -15 -10 0 -12 24 -3 33 11 11 24 -3 17 -18z m107 5 c23 4 40 3 40
-2 0 -5 8 -8 18 -6 10 2 17 -3 17 -12 0 -10 -9 -14 -30 -13 -73 4 -112 24 -97
48 4 6 8 4 10 -6 2 -13 10 -15 42 -9z m-75 0 c3 -5 1 -10 -4 -10 -6 0 -11 5
-11 10 0 6 2 10 4 10 3 0 8 -4 11 -10z m185 -25 c0 -8 -4 -15 -10 -15 -5 0
-10 7 -10 15 0 8 5 15 10 15 6 0 10 -7 10 -15z m37 -5 c-1 -11 -5 -20 -9 -20
-4 0 -8 9 -8 20 0 11 4 20 9 20 6 0 9 -9 8 -20z m147 5 c22 -2 43 -4 46 -5 3
-1 12 -3 20 -4 18 -1 20 -38 3 -43 -7 -3 -13 4 -14 14 0 10 -3 13 -6 6 -2 -7
-11 -13 -19 -13 -9 0 -12 5 -9 10 3 6 2 10 -4 10 -5 0 -13 -4 -16 -10 -3 -5
-11 -10 -16 -10 -6 0 -7 5 -4 10 4 7 -3 8 -21 4 -21 -6 -25 -4 -19 7 6 11 5
12 -6 2 -17 -17 -26 -16 -33 3 -9 24 2 35 31 28 14 -4 44 -8 67 -9z m114 -40
c0 -14 -4 -25 -9 -25 -5 0 -9 11 -9 25 0 14 4 25 9 25 5 0 9 -11 9 -25z m-504
-7 c8 14 56 2 56 -14 0 -8 -4 -14 -10 -14 -5 0 -10 5 -10 11 0 8 -4 8 -13 1
-16 -14 -46 -10 -57 8 -13 21 1 36 16 16 6 -9 15 -13 18 -8z m92 -18 c0 -11
-4 -20 -8 -20 -4 0 -8 2 -8 4 0 2 -3 11 -6 20 -4 10 -1 16 8 16 7 0 14 -9 14
-20z m106 -5 c3 -14 2 -25 -2 -25 -4 0 -10 11 -12 25 -3 14 -2 25 2 25 4 0 10
-11 12 -25z m-72 5 c0 -5 -4 -10 -10 -10 -5 0 -10 5 -10 10 0 6 5 10 10 10 6
0 10 -4 10 -10z m46 -1 c8 -14 -11 -33 -25 -25 -11 7 -4 36 9 36 5 0 12 -5 16
-11z m64 -11 c0 -18 -2 -20 -9 -8 -6 8 -7 18 -5 22 9 14 14 9 14 -14z m80 -15
c0 -14 -2 -15 -9 -5 -7 11 -9 11 -14 -2 -9 -24 -47 -20 -47 4 0 16 7 20 35 20
27 0 35 -4 35 -17z m30 -3 c0 -11 -4 -20 -9 -20 -5 0 -7 9 -4 20 3 11 7 20 9
20 2 0 4 -9 4 -20z m-500 -15 c0 -16 -6 -25 -15 -25 -9 0 -15 9 -15 25 0 16 6
25 15 25 9 0 15 -9 15 -25z m580 16 c0 -5 -7 -14 -15 -21 -12 -10 -15 -10 -15
2 0 8 3 18 7 21 9 10 23 9 23 -2z m37 -11 c1 -11 -2 -20 -7 -20 -10 0 -20 26
-13 34 12 11 19 6 20 -14z m82 -22 c0 -10 -2 -10 -6 -1 -3 10 -8 9 -20 -2 -22
-23 -43 -18 -43 9 0 18 6 26 23 28 24 3 47 -13 46 -34z m31 1 c0 -10 -4 -19
-10 -19 -5 0 -10 12 -10 26 0 14 4 23 10 19 6 -3 10 -15 10 -26z m35 11 c3 -5
1 -10 -4 -10 -6 0 -11 5 -11 10 0 6 2 10 4 10 3 0 8 -4 11 -10z m5 -29 c0 -6
-4 -13 -10 -16 -5 -3 -10 1 -10 9 0 9 5 16 10 16 6 0 10 -4 10 -9z m-780 -181
c0 -5 -4 -10 -10 -10 -5 0 -10 5 -10 10 0 6 5 10 10 10 6 0 10 -4 10 -10z m51
-15 c-1 -10 -20 -14 -34 -7 -4 2 -5 8 -1 13 7 13 35 8 35 -6z m44 -5 c3 -5 1
-10 -4 -10 -6 0 -11 5 -11 10 0 6 2 10 4 10 3 0 8 -4 11 -10z m36 -13 c-13
-13 -26 -3 -16 12 3 6 11 8 17 5 6 -4 6 -10 -1 -17z m77 -5 c2 -6 -8 -10 -24
-8 -16 2 -30 8 -32 14 -2 6 8 10 24 8 16 -2 30 -8 32 -14z m71 -25 c1 -5 -3
-5 -9 -2 -5 3 -10 16 -9 28 0 21 1 21 9 2 5 -11 9 -24 9 -28z m31 11 c0 -18
-2 -20 -9 -8 -6 8 -7 18 -5 22 9 14 14 9 14 -14z m76 -8 c-1 -35 -26 -41 -26
-7 0 13 3 27 7 30 13 14 20 6 19 -23z m134 -175 c0 -103 -4 -165 -10 -165 -6
0 -10 62 -10 165 0 103 4 165 10 165 6 0 10 -62 10 -165z m100 145 c0 -11 -4
-20 -10 -20 -5 0 -10 9 -10 20 0 11 5 20 10 20 6 0 10 -9 10 -20z m-480 3 c0
-5 -4 -15 -10 -23 -11 -18 -25 -7 -17 15 6 15 27 21 27 8z m130 -29 c0 -14 -4
-23 -10 -19 -5 3 -10 15 -10 26 0 10 5 19 10 19 6 0 10 -12 10 -26z m-39 -17
c-8 -8 -11 -7 -11 4 0 9 3 19 7 23 4 4 9 2 11 -4 3 -7 -1 -17 -7 -23z m105 13
c8 0 14 -4 14 -10 0 -5 -16 -10 -35 -10 -27 0 -33 3 -28 16 3 8 12 13 20 10 8
-3 21 -6 29 -6z m44 -10 c0 -5 -4 -10 -10 -10 -5 0 -10 5 -10 10 0 6 5 10 10
10 6 0 10 -4 10 -10z m70 -17 c-1 -24 -2 -26 -11 -10 -5 9 -7 22 -4 27 10 17
15 11 15 -17z m17 -15 c-3 -8 -6 -5 -6 6 -1 11 2 17 5 13 3 -3 4 -12 1 -19z
m90 -10 c-3 -7 -5 -2 -5 12 0 14 2 19 5 13 2 -7 2 -19 0 -25z m-432 -8 c-6 -9
-9 -9 -16 1 -10 17 0 34 13 21 6 -6 7 -16 3 -22z m242 10 c33 -12 63 -56 63
-94 l0 -26 -90 0 c-81 0 -90 -2 -90 -19 0 -10 9 -30 21 -45 29 -37 89 -37 118
0 11 14 26 24 32 22 7 -2 3 -14 -12 -32 -32 -37 -92 -45 -136 -17 -71 44 -63
174 12 207 37 16 45 17 82 4z m253 -110 c0 -73 -4 -120 -10 -120 -6 0 -10 47
-10 120 0 73 4 120 10 120 6 0 10 -47 10 -120z m215 106 c42 -18 57 -46 57
-106 0 -85 -61 -135 -136 -110 -46 15 -68 42 -73 92 -6 57 9 94 49 118 39 24
57 25 103 6z m145 -1 c0 -14 4 -14 31 1 40 20 93 11 114 -19 18 -25 22 -207 5
-207 -6 0 -10 36 -10 88 0 105 -13 132 -65 132 -59 0 -75 -28 -75 -132 0 -52
-4 -88 -10 -88 -6 0 -10 47 -10 120 0 73 4 120 10 120 6 0 10 -7 10 -15z m250
0 c0 -14 4 -14 31 1 40 20 93 11 114 -19 18 -25 22 -207 5 -207 -6 0 -10 36
-10 88 0 105 -13 132 -65 132 -59 0 -75 -28 -75 -132 0 -52 -4 -88 -10 -88 -6
0 -10 47 -10 120 0 73 4 120 10 120 6 0 10 -7 10 -15z m-1000 -4 c0 -6 -4 -13
-10 -16 -5 -3 -10 1 -10 9 0 9 5 16 10 16 6 0 10 -4 10 -9z m445 -1 c3 -5 2
-10 -4 -10 -5 0 -13 5 -16 10 -3 6 -2 10 4 10 5 0 13 -4 16 -10z m-855 -49 c0
-9 -23 -21 -40 -21 -4 0 -10 7 -14 15 -4 11 2 15 24 15 17 0 30 -4 30 -9z
m644 -7 c3 -8 2 -12 -4 -9 -6 3 -10 10 -10 16 0 14 7 11 14 -7z m93 -16 c-3
-7 -5 -2 -5 12 0 14 2 19 5 13 2 -7 2 -19 0 -25z m-479 -14 c12 -2 22 -12 22
-20 0 -12 -6 -15 -22 -11 -13 3 -45 9 -73 13 -60 8 -72 14 -54 25 13 8 69 5
127 -7z m291 -70 c-8 -10 -15 -11 -30 -1 -28 17 -23 24 11 19 24 -3 28 -7 19
-18z"/>
<path d="M1325 1855 c-14 -13 -25 -33 -25 -45 0 -18 6 -20 81 -20 l81 0 -7 28
c-16 65 -84 84 -130 37z m65 -11 c0 -8 -4 -12 -10 -9 -5 3 -10 10 -10 16 0 5
5 9 10 9 6 0 10 -7 10 -16z"/>
<path d="M1780 1855 c-19 -20 -24 -37 -24 -75 0 -62 30 -100 80 -100 51 0 76
28 82 91 3 45 0 59 -18 82 -29 37 -86 38 -120 2z m86 -10 c10 -8 14 -15 7 -15
-6 0 -14 4 -18 10 -3 5 -13 6 -22 3 -11 -4 -14 -3 -9 5 9 16 18 15 42 -3z"/>
<path d="M1375 3040 c-3 -6 1 -7 9 -4 18 7 21 14 7 14 -6 0 -13 -4 -16 -10z"/>
<path d="M436 1649 c-64 -71 -97 -131 -100 -178 -1 -21 -8 -46 -14 -54 -11
-13 -8 -17 20 -26 18 -5 62 -15 98 -21 36 -7 101 -21 145 -32 44 -11 97 -24
118 -29 21 -5 42 -7 46 -4 5 2 22 1 37 -4 16 -5 74 -17 129 -26 55 -9 125 -23
156 -31 31 -8 66 -14 77 -14 11 0 37 -8 58 -17 22 -9 42 -16 47 -15 4 1 7 -3
7 -9 0 -8 5 -8 15 1 12 10 15 9 15 -5 0 -13 -6 -16 -24 -11 -18 4 -28 1 -35
-11 -7 -13 -13 -14 -23 -6 -13 11 -61 26 -88 27 -8 1 -21 5 -29 10 -9 6 -12 5
-8 -1 8 -13 -56 -11 -65 2 -4 6 -8 0 -8 -12 0 -13 5 -23 11 -23 5 0 7 -5 4
-10 -3 -6 -1 -10 4 -10 6 0 11 -7 11 -16 0 -10 5 -14 15 -10 10 3 18 -1 22
-12 4 -9 14 -22 22 -29 30 -21 3 -25 -66 -8 -74 18 -141 32 -188 41 -67 12
-223 48 -456 106 -244 60 -246 60 -274 42 -25 -17 -26 -19 -9 -26 45 -19 1186
-293 1759 -422 110 -25 288 -65 395 -90 l195 -45 71 45 c83 51 152 122 161
164 5 27 9 30 43 30 55 0 152 55 234 131 39 36 85 73 103 82 35 19 67 57 55
69 -6 6 -221 47 -342 65 -19 3 -38 10 -41 15 -4 6 -11 8 -15 6 -5 -3 -18 -2
-29 3 -17 6 -15 8 11 8 28 1 32 5 38 39 13 78 5 102 -34 102 -10 0 0 -43 12
-51 12 -8 -2 -70 -17 -75 -18 -7 -95 28 -95 44 0 24 29 82 42 83 7 1 2 4 -12
8 -14 5 -28 5 -31 2 -4 -3 -10 -33 -14 -67 l-7 -61 34 -10 c27 -9 29 -11 10
-12 -13 -1 -34 10 -48 24 -29 29 -112 44 -198 36 -5 -1 -3 -8 4 -16 10 -13 9
-15 -8 -15 -12 0 -26 8 -31 18 -8 13 -12 14 -19 4 -9 -14 -21 -12 -502 78
-118 22 -218 40 -222 40 -4 0 -5 7 -2 15 7 18 0 19 -24 4 -12 -8 -35 -7 -87 5
-64 14 -66 15 -22 13 72 -3 56 8 -30 22 -43 6 -103 16 -133 21 -30 5 -84 14
-120 19 -161 24 -192 30 -221 45 -18 9 -51 16 -73 16 -23 0 -68 5 -101 10 -33
5 -91 14 -130 20 -82 12 -155 30 -171 42 -8 6 -28 -9 -58 -43z m2094 -339 c0
-5 -5 -10 -11 -10 -5 0 -7 5 -4 10 3 6 8 10 11 10 2 0 4 -4 4 -10z m-1370
-239 c0 -5 -9 -11 -20 -14 -22 -6 -28 8 -7 16 19 8 27 8 27 -2z"/>
<path d="M1557 1603 c-2 -4 -7 -25 -11 -45 -7 -40 -7 -41 72 -53 l42 -7 0 45
c0 43 -2 46 -32 52 -18 4 -40 9 -50 11 -9 3 -18 1 -21 -3z"/>
<path d="M1733 1506 c-15 -18 6 -29 28 -15 12 7 12 9 -1 9 -13 0 -13 1 0 10
13 9 13 10 0 9 -8 0 -20 -6 -27 -13z"/>
<path d="M2310 1460 c0 -5 5 -10 11 -10 5 0 7 5 4 10 -3 6 -8 10 -11 10 -2 0
-4 -4 -4 -10z"/>
<path d="M1728 1453 c6 -2 18 -2 25 0 6 3 1 5 -13 5 -14 0 -19 -2 -12 -5z"/>
<path d="M1771 1446 c2 -2 22 -6 44 -9 27 -4 35 -3 25 3 -14 9 -79 15 -69 6z"/>
<path d="M2055 1440 c-20 -9 -20 -9 1 -9 11 -1 25 -6 32 -13 9 -9 12 -7 12 10
0 23 -12 26 -45 12z"/>
<path d="M1980 1436 c0 -2 9 -6 20 -9 11 -3 20 -1 20 4 0 5 -9 9 -20 9 -11 0
-20 -2 -20 -4z"/>
<path d="M2771 1363 c-18 -63 -15 -70 33 -82 90 -22 106 -14 106 54 0 39 -3
42 -60 51 -40 7 -42 6 -35 -14 5 -17 3 -21 -10 -16 -10 4 -13 13 -10 25 4 11
2 19 -4 19 -5 0 -15 -17 -20 -37z"/>
<path d="M3125 1318 c-3 -7 -6 -32 -7 -55 -3 -48 15 -64 20 -18 2 17 8 36 14
42 12 15 4 43 -12 43 -6 0 -13 -6 -15 -12z"/>
<path d="M41 1061 c-19 -12 1 -47 39 -66 31 -16 54 -20 46 -7 -18 29 79 57
101 30 18 -21 1 -38 -47 -46 l-43 -7 37 -33 c50 -43 99 -43 184 0 34 18 62 35
62 38 -1 21 -35 35 -164 65 -151 36 -191 41 -215 26z m275 -112 c10 -16 -17
-30 -46 -23 -31 7 -34 10 -25 23 8 14 62 14 71 0z"/>
<path d="M500 953 c-50 -33 -88 -75 -83 -91 4 -10 2 -13 -5 -8 -7 4 -12 3 -12
-3 0 -5 4 -12 8 -15 19 -11 356 -96 383 -96 19 0 42 12 69 37 55 49 62 64 42
90 -13 17 -55 30 -195 62 -97 23 -178 41 -180 41 -1 0 -14 -7 -27 -17z m158
-41 c8 -5 10 -16 6 -28 -7 -18 -6 -18 12 -2 12 11 28 15 42 11 27 -7 28 -15 3
-37 -14 -13 -24 -14 -44 -7 -14 5 -27 7 -31 4 -3 -3 -16 -3 -30 1 -20 5 -24
11 -22 34 2 15 4 28 5 30 3 5 47 1 59 -6z m133 -82 c14 0 11 -28 -3 -33 -11
-3 -32 5 -58 21 -9 6 25 22 38 17 8 -3 18 -5 23 -5z"/>
<path d="M685 870 c-3 -5 1 -10 9 -10 9 0 16 5 16 10 0 6 -4 10 -9 10 -6 0
-13 -4 -16 -10z"/>
<path d="M347 909 c-51 -33 -55 -39 -32 -39 14 0 97 69 84 70 -3 0 -27 -14
-52 -31z"/>
<path d="M993 835 c-33 -23 -97 -115 -87 -125 15 -15 417 -111 440 -106 12 3
40 29 63 57 63 79 56 85 -186 142 -109 26 -200 47 -203 47 -3 0 -15 -7 -27
-15z m215 -58 c28 -6 52 -14 52 -19 0 -5 -11 -20 -24 -34 -19 -21 -27 -24 -42
-16 -11 6 -40 13 -66 17 -27 4 -48 12 -48 18 0 21 44 58 60 51 8 -4 39 -11 68
-17z m120 -77 c17 0 15 -29 -3 -36 -8 -4 -21 -1 -29 5 -7 6 -16 8 -19 5 -3 -3
-11 -3 -17 1 -18 11 10 37 34 31 12 -3 27 -6 34 -6z"/>
<path d="M265 799 c-22 -18 -26 -27 -21 -52 3 -16 15 -45 27 -63 17 -29 24
-32 49 -27 34 6 51 -17 30 -42 -10 -12 -7 -15 14 -21 14 -3 28 -16 32 -27 9
-30 54 -77 74 -77 8 0 59 44 113 98 97 97 98 99 80 120 -13 15 -65 33 -191 66
-96 25 -175 46 -177 46 -1 0 -15 -10 -30 -21z m190 -62 c13 -10 15 -16 6 -21
-6 -4 -19 -2 -27 5 -12 10 -13 9 -8 -5 4 -11 1 -16 -12 -17 -11 0 -14 -3 -6
-6 6 -2 12 -9 12 -15 0 -11 -49 -2 -62 10 -8 8 10 33 37 49 26 16 38 16 60 0z
m125 -36 c-1 -24 -63 -60 -92 -54 -31 7 -19 32 26 55 27 14 66 14 66 -1z"/>
<path d="M1496 654 c-25 -33 -46 -64 -46 -71 0 -13 28 -23 160 -54 l96 -22
127 54 c69 30 123 57 119 60 -10 8 -317 81 -368 87 -41 4 -43 3 -88 -54z m269
-54 c0 -22 -68 -26 -85 -5 -11 13 -11 18 -1 24 20 12 86 -2 86 -19z"/>
<path d="M689 603 c-88 -90 -129 -139 -129 -154 0 -5 55 -9 122 -9 115 0 121
1 100 16 -29 20 -17 36 39 53 55 17 70 3 46 -39 l-18 -30 78 0 c43 0 96 -5
117 -10 38 -8 40 -8 85 42 60 66 64 74 50 97 -9 14 -62 32 -203 70 -105 28
-193 51 -196 51 -3 0 -44 -39 -91 -87z m274 11 c3 -3 2 -14 -3 -23 -5 -9 -11
-23 -13 -32 -7 -20 -46 -29 -78 -17 l-24 9 21 17 c12 9 24 25 27 35 6 16 56
25 70 11z"/>
<path d="M1303 543 c-19 -7 -133 -150 -133 -167 0 -8 14 -26 31 -40 23 -19 42
-26 74 -26 38 0 48 5 67 31 20 27 28 30 59 26 20 -3 44 0 55 6 18 10 18 11 -6
17 -27 6 -47 47 -37 74 15 38 114 4 102 -35 -4 -10 -5 -19 -2 -19 9 0 111 60
102 60 -5 0 -75 18 -155 39 -80 21 -151 36 -157 34z"/>
</g>
</svg>
